<?xml version="1.0" encoding="UTF-8" standalone="no"?>
<svg xmlns="http://www.w3.org/2000/svg"
		xmlns:xlink="http://www.w3.org/1999/xlink"
		width="1000"
		height="500"
		viewBox="-510 -10 2020 1020" >
	<defs>
		<g id="hiddenBlack">
			<rect style="fill:#444;stroke:#000;stroke-width:2" width="460" height="210" x="0" y="0" />
			<use xlink:href="#yinyang" x="130" y="10" />
		</g>
		<g id="hiddenWhite">
			<rect style="fill:#ddd;stroke:#000;stroke-width:2" width="460" height="210" x="0" y="0" />
			<use xlink:href="#yinyang" x="130" y="10" />
		</g>
		<g id="ruleBlack">
			<rect style="fill:#444;stroke:#000;stroke-width:2" width="460" height="210" x="0" y="0" />
			<rect style="fill:#fff;" width="150" height="150" x="30" y="30" />
			<rect y="30" x="280" height="150" width="150" style="fill:#fff;" />
			<path style="fill:#ddd;" d="m 210,80 0,50 50,-25 z" />
			<path d="m 105,30 0,150" />
			<path d="m 30,105 150,0"/>
			<path d="m 355,30 0,150" />
			<path d="m 280,105 150,0" />
		</g>
		<g id="ruleWhite">
			<rect y="0" x="0" height="210" width="460" style="fill:#ddd;stroke:#000000;stroke-width:2" />
			<rect y="30" x="30" height="150" width="150" style="fill:#fff;" />
			<rect style="fill:#fff;" width="150" height="150" x="280" y="30" />
			<path d="m 210,80 0,50 50,-25 z" style="fill:#444;" />
			<path d="m 105,30 0,150" />
			<path d="m 30,105 150,0" />
			<path d="m 355,30 0,150" />
			<path d="m 280,105 150,0" />
		</g>
		<g transform="scale(0.4,0.4)" id="yinyang">
			<circle cx="233" cy="233" r="231" style="fill:#000"/>
			<path d="m 233,459 a 226,226 0 0 1 0,-452 113,113 0 0 1 0,226 z" style="fill:#ffffff" />
			<circle cx="233" cy="346" r="113" style="fill:#000" />
			<circle cx="233" cy="120" r="30" style="fill:#000"/>
			<circle cx="233" cy="346" r="30" style="fill:#fff" />
		</g>
		<radialGradient id="rgBlack" cx=".3" cy=".3" r=".8">
			<stop offset="0" stop-color="#777"/>
			<stop offset=".3" stop-color="#444"/>
			<stop offset="1" stop-color="#222"/>
		</radialGradient>
		<radialGradient id="rgWhite" cx=".3" cy=".3" r=".8">
			<stop offset="0" stop-color="#EEE"/>
			<stop offset=".3" stop-color="#DDD"/>
			<stop offset="1" stop-color="#999"/>
		</radialGradient>
	</defs>
	<g id="board">
		<g id="background">
			<path
				 style="fill:#e2dcc6;stroke:#000000;stroke-width:20px;stroke-linejoin:miter;stroke-opacity:1"
				 d="m 0,0 0,1000 750,0 0,-500 -500,0 L 250,0 0,0 z" />
			<path
				 style="fill:#c3b196;stroke:#000000;stroke-width:20px;stroke-linecap:butt;stroke-linejoin:miter;stroke-opacity:1"
				 d="m 250,0 0,500 500,0 0,500 250,0 0,-1000 -750,0 z" />
			<path
				 style="fill:none;stroke:#000000;stroke-width:10px;stroke-linecap:butt;stroke-linejoin:miter;stroke-opacity:1"
				 d="m 250,0 0,1000" />
			<path
				 d="m 500,0 0,1000"
				 style="fill:none;stroke:#000000;stroke-width:10px;stroke-linecap:butt;stroke-linejoin:miter;stroke-opacity:1" />
			<path
				 style="fill:none;stroke:#000000;stroke-width:10px;stroke-linecap:butt;stroke-linejoin:miter;stroke-opacity:1"
				 d="m 750,0 0,1000" />
			<path
				 style="fill:none;stroke:#000000;stroke-width:10px;stroke-linecap:butt;stroke-linejoin:miter;stroke-opacity:1"
				 d="m 0,500 1000,0" />
			<path
				 d="m 0,750 1000,0"
				 style="fill:none;stroke:#000000;stroke-width:10px;stroke-linecap:butt;stroke-linejoin:miter;stroke-opacity:1" />
			<path
				 d="m 0,250 1000,0"
				 style="fill:none;stroke:#000000;stroke-width:10px;stroke-linecap:butt;stroke-linejoin:miter;stroke-opacity:1" />
			<use
				 xlink:href="#yinyang"
				 x="780"
				 y="35"
				 width="1000"
				 height="1000" />
			<use
				 height="1000"
				 width="1000"
				 y="785"
				 x="30"
				 xlink:href="#yinyang" />
		</g>
	</g>
</svg>
